<?xml version="1.0" encoding="UTF-8"?>
<svg version="1.1" xmlns="http://www.w3.org/2000/svg" width="640" height="165">
<path d="M0 0 C1.02351563 -0.00128906 2.04703125 -0.00257812 3.1015625 -0.00390625 C10.66533916 1.30486179 15.92852765 5.52265483 21.20239258 10.85644531 C21.832724 11.47816116 22.46305542 12.09987701 23.11248779 12.74043274 C25.17507195 14.78047602 27.22274213 16.83474374 29.26953125 18.890625 C30.70771698 20.32357066 32.14642076 21.75599656 33.58561707 23.18792725 C36.59201154 26.18393991 39.59084206 29.18727911 42.5847168 32.19580078 C46.41385456 36.04213923 50.26298763 39.86773466 54.11826038 43.68785477 C57.09117537 46.63876868 60.05226318 49.60133151 63.01004601 52.5674057 C64.42436314 53.98254053 65.84250992 55.39385904 67.26459694 56.80118561 C69.2535399 58.77263022 71.22574494 60.75947685 73.19458008 62.75097656 C73.7790239 63.32372818 74.36346771 63.8964798 74.96562195 64.48658752 C80.10598381 69.74752033 82.81796967 75.5405231 82.75 83.0625 C82.75773438 83.9184375 82.76546875 84.774375 82.7734375 85.65625 C81.70457153 93.45268414 78.5442702 98.13150863 73.08691406 103.48168945 C72.45398438 104.12177444 71.82105469 104.76185944 71.16894531 105.42134094 C69.08837027 107.51872579 66.99029179 109.59752263 64.890625 111.67578125 C63.43114186 113.13609373 61.972475 114.59722244 60.5145874 116.05912781 C57.46261499 119.11395291 54.40207691 122.15984451 51.33496094 125.19946289 C47.41120393 129.08912417 43.50784418 132.99852588 39.61047745 136.91460896 C36.60326022 139.93241203 33.58634197 142.94036219 30.56633759 145.945364 C29.12350027 147.38303179 27.683467 148.82351956 26.24634552 150.26690102 C24.23406477 152.28465333 22.20928335 154.28897544 20.18066406 156.2902832 C19.29976105 157.18097504 19.29976105 157.18097504 18.40106201 158.08966064 C13.00796172 163.36035341 7.79040603 165.98550965 0.0625 166.0625 C-0.96488281 166.0934375 -1.99226563 166.124375 -3.05078125 166.15625 C-15.15246807 164.14591514 -22.79699015 155.11078446 -31.0234375 146.79296875 C-32.38881528 145.42842105 -33.7550103 144.06469065 -35.12197876 142.70173645 C-37.9723434 139.85421806 -40.81379794 136.99818522 -43.64892578 134.13549805 C-47.27162354 130.47867194 -50.91407915 126.84230821 -54.56320763 123.21187878 C-57.38289522 120.40278954 -60.19270686 117.58398656 -62.99959183 114.76210976 C-64.33875062 113.41779287 -65.68071152 112.076261 -67.02558517 110.73766136 C-68.90642899 108.86230581 -70.77377056 106.97443709 -72.63818359 105.08276367 C-73.18783783 104.53963531 -73.73749207 103.99650696 -74.30380249 103.43692017 C-80.05010053 97.54801434 -83.19657357 91.53983115 -83.25 83.1875 C-83.28351563 81.98351562 -83.31703125 80.77953125 -83.3515625 79.5390625 C-82.06215367 68.08969127 -70.94607758 59.27978641 -63.265625 51.63671875 C-61.95243309 50.31828104 -60.63975919 48.9993272 -59.32757568 47.67988586 C-56.5872841 44.92923703 -53.83971954 42.1861211 -51.08691406 39.44799805 C-47.57711768 35.95540256 -44.08810704 32.44284095 -40.60452652 28.9241209 C-37.90233408 26.19987096 -35.18843728 23.48751911 -32.47106171 20.7784214 C-31.18038891 19.48856314 -29.89349938 18.19490667 -28.61066437 16.89725304 C-11.62918448 -0.25024827 -11.62918448 -0.25024827 0 0 Z M-8.72216797 26.78564453 C-9.5866732 27.63656929 -9.5866732 27.63656929 -10.46864319 28.50468445 C-12.36921926 30.38464563 -14.24325769 32.28881707 -16.1171875 34.1953125 C-17.43023845 35.50872711 -18.74447484 36.82095759 -20.05984497 38.13204956 C-22.81284856 40.88375796 -25.55330443 43.6472169 -28.28515625 46.41992188 C-31.7889686 49.97480754 -35.31878656 53.50243257 -38.85793877 57.02209663 C-41.57485644 59.72872145 -44.27927766 62.44755381 -46.97989273 65.17043686 C-48.27707249 66.47598656 -49.57771386 67.77810616 -50.88183212 69.07672501 C-52.70189532 70.89350947 -54.50492834 72.72564048 -56.30419922 74.56298828 C-56.84646652 75.09827652 -57.38873383 75.63356476 -57.94743347 76.18507385 C-60.06291198 78.37423715 -61.5003515 80.09396714 -62.2901001 83.0625 C-61.30509952 86.76495237 -58.9563095 88.94403451 -56.30419922 91.56201172 C-55.73837631 92.13980881 -55.17255341 92.7176059 -54.58958435 93.31291199 C-52.7156509 95.21904627 -50.82377208 97.1060902 -48.9296875 98.9921875 C-47.62067619 100.30964508 -46.31226331 101.62769751 -45.00442505 102.94631958 C-42.26036075 105.70678386 -39.50693311 108.45748267 -36.74707031 111.20214844 C-33.208979 114.72294355 -29.69886383 118.27022942 -26.19572258 121.82575798 C-23.50048688 124.55404688 -20.78922084 127.26594683 -18.07300186 129.97333145 C-16.7717984 131.2748953 -15.47606511 132.58195147 -14.18593979 133.89449692 C-12.3809384 135.7266727 -10.55511783 137.53519934 -8.72216797 139.33935547 C-8.19204605 139.88678909 -7.66192413 140.43422272 -7.11573792 140.99824524 C-4.59920174 143.43076882 -3.15670594 144.5350347 0.38746643 144.71810913 C4.12666895 143.27174662 6.52094019 141.1107686 9.27270508 138.29589844 C9.82792847 137.74783035 10.38315186 137.19976227 10.9552002 136.63508606 C12.78093435 134.82621402 14.58793683 132.99984787 16.39453125 131.171875 C17.66071107 129.90652404 18.92770644 128.64198868 20.19548035 127.37823486 C22.84695699 124.72961447 25.48945169 122.07243513 28.12573242 119.40869141 C31.50448496 115.99583987 34.90293046 112.60343674 38.30811024 109.21697617 C40.92608138 106.60957553 43.53421009 103.99250812 46.1393795 101.37232208 C47.38890049 100.11762043 48.64126061 98.86573954 49.89649391 97.61675262 C51.64906216 95.86963756 53.38817319 94.11014551 55.12426758 92.34667969 C55.64423813 91.83323502 56.16420868 91.31979034 56.69993591 90.79078674 C59.53223294 87.88218517 61.37075405 85.72151604 61.375 81.5625 C60.39318226 79.6404913 60.39318226 79.6404913 58.66430664 77.99389648 C58.01164825 77.30407684 57.35898987 76.6142572 56.68655396 75.90353394 C55.92374115 75.13099274 55.16092834 74.35845154 54.375 73.5625 C53.5275119 72.68191925 52.6800238 71.8013385 51.80685425 70.89407349 C48.81166319 67.79119681 45.78165815 64.72348169 42.74609375 61.66015625 C42.19734148 61.1060803 41.64858921 60.55200436 41.08320808 59.98113823 C38.18763258 57.05904814 35.2885387 54.14049644 32.38696289 51.22436523 C29.99513813 48.8191244 27.6108261 46.40678844 25.23266602 43.98803711 C22.34384239 41.04994122 19.4429772 38.12426927 16.53297615 35.20715141 C15.43113852 34.09860896 14.33355359 32.98582214 13.24041557 31.86870003 C11.71404357 30.31071693 10.17265413 28.76924221 8.62670898 27.23071289 C7.75513657 26.35105362 6.88356415 25.47139435 5.98558044 24.56507874 C-0.23559185 19.79281157 -3.71442024 21.61436336 -8.72216797 26.78564453 Z " fill="#2F1F49" transform="translate(82.625,-0.5625)"/>
<path d="M0 0 C8.58 0 17.16 0 26 0 C31.63804683 13.5313124 31.63804683 13.5313124 33.9609375 19.55859375 C34.22441483 20.2417868 34.48789215 20.92497986 34.75935364 21.62887573 C35.63326128 23.89764384 36.50429838 26.16749972 37.375 28.4375 C37.6819278 29.2359433 37.98885559 30.0343866 38.30508423 30.85702515 C45.79213468 50.33972974 53.13809265 69.87625102 60.4810648 89.41361618 C61.21954612 91.37824667 61.95842994 93.34272532 62.69743347 95.30715942 C63.60697645 97.725412 64.51565789 100.14398887 65.42329407 102.56295776 C67.62237937 108.40883155 69.87221682 114.21835137 72.29707336 119.97477722 C73 122 73 122 73 125 C65.41 125 57.82 125 50 125 C45.79541511 116.09617318 42.48823404 107.30195744 39 98 C21.51 97.67 4.02 97.34 -14 97 C-14.33 98.65 -14.66 100.3 -15 102 C-15.57148979 103.76611808 -16.17772325 105.52125344 -16.8125 107.265625 C-17.34230469 108.72355469 -17.34230469 108.72355469 -17.8828125 110.2109375 C-18.25148437 111.21382813 -18.62015625 112.21671875 -19 113.25 C-19.36867187 114.26835937 -19.73734375 115.28671875 -20.1171875 116.3359375 C-22.86941964 123.86941964 -22.86941964 123.86941964 -24 125 C-25.70772358 125.08713831 -27.41898649 125.10700007 -29.12890625 125.09765625 C-30.68061523 125.09282227 -30.68061523 125.09282227 -32.26367188 125.08789062 C-33.35228516 125.07951172 -34.44089844 125.07113281 -35.5625 125.0625 C-37.2012207 125.05573242 -37.2012207 125.05573242 -38.87304688 125.04882812 C-41.58208759 125.03699825 -44.29100822 125.01967721 -47 125 C-45.02673833 118.08861255 -42.72988687 111.37402934 -40.1484375 104.66796875 C-39.77694077 103.69399643 -39.40544403 102.72002411 -39.02268982 101.71653748 C-37.80999417 98.53895832 -36.5925011 95.36324065 -35.375 92.1875 C-34.0925675 88.83120012 -32.81136946 85.47443078 -31.5302887 82.11761475 C-30.65506011 79.8243743 -29.77943646 77.5312846 -28.90342712 75.23834229 C-25.99923694 67.63322745 -23.11456943 60.02099726 -20.24609375 52.40234375 C-19.86906311 51.40138168 -19.49203247 50.40041962 -19.10357666 49.36912537 C-17.6626419 45.54263393 -16.22204762 41.71601997 -14.78509521 37.88803101 C-10.0178641 25.19049015 -5.0713317 12.57961033 0 0 Z M12 28 C9.57199443 34.35112664 7.15170874 40.70515512 4.73681641 47.0612793 C3.9140568 49.22406843 3.08951972 51.38618224 2.26318359 53.54760742 C1.07704325 56.65108026 -0.10272357 59.75691042 -1.28125 62.86328125 C-1.83903137 64.31653557 -1.83903137 64.31653557 -2.40808105 65.79914856 C-2.74843384 66.6998558 -3.08878662 67.60056305 -3.43945312 68.52856445 C-3.89245789 69.71770195 -3.89245789 69.71770195 -4.35461426 70.93086243 C-5.14888113 73.11607784 -5.14888113 73.11607784 -5 76 C6.88 76 18.76 76 31 76 C29.06205306 69.54017687 27.08617486 63.25488398 24.71484375 56.96484375 C24.41308731 56.16011124 24.11133087 55.35537872 23.8004303 54.52626038 C23.16944193 52.84764407 22.53665124 51.1697042 21.90209961 49.49243164 C20.92903407 46.91507633 19.96731674 44.33365775 19.00585938 41.75195312 C18.38870603 40.11432495 17.77089189 38.47694561 17.15234375 36.83984375 C16.86584457 36.06704575 16.5793454 35.29424774 16.28416443 34.49803162 C15.02850977 30.52963131 15.02850977 30.52963131 12 28 Z " fill="#2F1F49" transform="translate(240,20)"/>
<path d="M0 0 C8.68789368 6.04375212 14.1894527 15.33135336 16.5859375 25.5625 C17.5859375 31.5625 17.5859375 31.5625 17.5859375 46.5625 C-3.2040625 46.5625 -23.9940625 46.5625 -45.4140625 46.5625 C-42.0185844 59.47789804 -42.0185844 59.47789804 -32.7890625 68.0625 C-26.8878287 70.59483021 -20.16968509 70.66381931 -14.04296875 68.8671875 C-9.2634724 66.71686589 -6.40465115 63.82182324 -3.4140625 59.5625 C-2.9190625 58.0775 -2.9190625 58.0775 -2.4140625 56.5625 C4.30132923 57.86225324 10.30612863 59.86178888 16.5859375 62.5625 C16.20020781 70.27709374 11.14138975 75.3104858 5.7109375 80.3125 C-4.67739277 88.96615652 -16.16757871 90.5097346 -29.4140625 89.5625 C-40.00972179 87.81250724 -50.58858088 82.90123573 -57.1953125 74.22265625 C-67.01814746 59.71732582 -68.75414585 43.91066773 -65.75390625 26.796875 C-64.86631099 23.86127856 -63.81442725 21.28843257 -62.4140625 18.5625 C-61.92808594 17.61375 -61.44210937 16.665 -60.94140625 15.6875 C-55.01200385 5.37062018 -46.02211129 -1.71641407 -34.54858398 -4.96582031 C-22.92548719 -7.53425483 -10.1582587 -6.04893075 0 0 Z M-40.96875 21.52734375 C-43.1993695 24.66829716 -44.4140625 26.65991102 -44.4140625 30.5625 C-31.2140625 30.5625 -18.0140625 30.5625 -4.4140625 30.5625 C-5.48363749 23.07547509 -6.48881266 19.81738009 -12.4140625 15.25 C-23.05832699 9.26260122 -33.56781473 12.59458699 -40.96875 21.52734375 Z " fill="#2F1F49" transform="translate(530.4140625,57.4375)"/>
<path d="M0 0 C24.09 0 48.18 0 73 0 C73 19.49542569 73 19.49542569 66.55297852 26.53466797 C65.84806274 27.19426514 65.84806274 27.19426514 65.12890625 27.8671875 C61.95247424 30.97220604 59.30054886 34.33780033 56.625 37.875 C52.16355387 43.64502942 47.45374277 49.16277547 42.6496582 54.64892578 C37.49526278 60.54432872 32.34889356 66.47665966 28 73 C43.18 73 58.36 73 74 73 C74 79.27 74 85.54 74 92 C49.25 92 24.5 92 -1 92 C-1 73.08990861 -1 73.08990861 2.80834961 69.08813477 C3.34596924 68.60530029 3.88358887 68.12246582 4.4375 67.625 C5.55333964 66.48169353 6.66791309 65.33714999 7.78125 64.19140625 C8.33296875 63.6514502 8.8846875 63.11149414 9.453125 62.55517578 C11.63160211 60.36500861 13.52479101 57.98550261 15.4375 55.5625 C19.03636424 51.12760196 22.74740422 46.80440051 26.5 42.5 C32.88660357 35.171871 39.16502542 27.77996611 45 20 C30.15 19.67 15.3 19.34 0 19 C0 12.73 0 6.46 0 0 Z " fill="#2F1F49" transform="translate(321,53)"/>
<path d="M0 0 C6.20305901 4.48797481 11.50656952 10.32414835 14.484375 17.45703125 C14.484375 18.77703125 14.484375 20.09703125 14.484375 21.45703125 C11.69963625 22.99081661 8.90559162 24.50678705 6.109375 26.01953125 C5.3153125 26.45716797 4.52125 26.89480469 3.703125 27.34570312 C2.56230469 27.95961914 2.56230469 27.95961914 1.3984375 28.5859375 C0.6967041 28.9682251 -0.0050293 29.3505127 -0.72802734 29.74438477 C-1.31793457 29.97955811 -1.9078418 30.21473145 -2.515625 30.45703125 C-5.26808498 29.08080126 -5.45290284 27.51437453 -6.640625 24.70703125 C-9.23703276 19.36912235 -12.03605661 16.70344435 -17.515625 14.45703125 C-24.32845724 12.63216547 -29.73212193 13.904693 -35.765625 17.26953125 C-41.46179118 21.80057253 -44.84606972 27.37565569 -45.80444336 34.64892578 C-45.91637093 36.90592411 -45.93229458 39.13522135 -45.890625 41.39453125 C-45.88119873 42.18504883 -45.87177246 42.97556641 -45.86206055 43.79003906 C-45.67065769 51.1807821 -44.400045 56.51955301 -40.390625 62.76953125 C-35.63466047 67.21532418 -30.50263802 69.61767824 -23.953125 69.95703125 C-18.51764556 69.67245117 -14.01409975 67.7673092 -10.01171875 64.06640625 C-7.1846461 60.85957757 -5.26854686 57.33191116 -3.515625 53.45703125 C0.84408331 54.80552962 4.79778938 56.50610971 8.859375 58.58203125 C9.91898438 59.12085937 10.97859375 59.6596875 12.0703125 60.21484375 C12.86695313 60.62476562 13.66359375 61.0346875 14.484375 61.45703125 C14.33030353 68.54431874 11.09349135 73.21595197 6.484375 78.45703125 C-3.13923682 87.32221482 -14.95283426 90.24636854 -27.80859375 89.8359375 C-40.8615646 88.50175607 -51.64068021 82.84552538 -59.984375 72.69140625 C-66.33282884 63.42784606 -68.90553034 53.22695722 -68.828125 42.14453125 C-68.82321045 41.30929932 -68.8182959 40.47406738 -68.81323242 39.61352539 C-68.69152686 33.1818545 -67.91655102 27.46910615 -65.515625 21.45703125 C-65.19851563 20.62171875 -64.88140625 19.78640625 -64.5546875 18.92578125 C-60.28400801 9.11230498 -52.68806134 1.86742765 -43.03515625 -2.60546875 C-29.3280971 -7.70576983 -12.71580471 -7.79929016 0 0 Z " fill="#2F1F49" transform="translate(625.515625,57.54296875)"/>
<path d="M0 0 C6.93 0 13.86 0 21 0 C21 8.58 21 17.16 21 26 C27.27 26 33.54 26 40 26 C40 32.27 40 38.54 40 45 C33.73 45 27.46 45 21 45 C21.09342941 52.06607408 21.19950022 59.13180124 21.31738281 66.19750977 C21.35570782 68.60207901 21.39055441 71.00670628 21.421875 73.41137695 C21.46744882 76.86430628 21.5254563 80.3168349 21.5859375 83.76953125 C21.59748871 84.84773636 21.60903992 85.92594147 21.62094116 87.03681946 C21.64081085 88.03763046 21.66068054 89.03844147 21.68115234 90.06958008 C21.69447601 90.95116287 21.70779968 91.83274567 21.7215271 92.74104309 C21.863101 95.2807783 21.863101 95.2807783 24 98 C29.42635165 99.80878388 35.33114562 99.05200784 41 99 C41 105.27 41 111.54 41 118 C36.32766598 119.1680835 32.10338295 119.22192157 27.3125 119.25 C26.45205078 119.270625 25.59160156 119.29125 24.70507812 119.3125 C17.21645227 119.3576462 10.2924131 118.32447675 4.5625 113.1875 C0.42856515 108.9828996 -0.25142423 103.5818467 -0.22705078 97.90283203 C-0.22689972 96.72206085 -0.22674866 95.54128967 -0.22659302 94.32473755 C-0.21627045 93.06515228 -0.20594788 91.80556702 -0.1953125 90.5078125 C-0.1924826 89.20673553 -0.18965271 87.90565857 -0.18673706 86.56515503 C-0.17913675 83.1226418 -0.15951973 79.68029997 -0.1373291 76.237854 C-0.11679261 72.71848875 -0.10771873 69.19909553 -0.09765625 65.6796875 C-0.07626999 58.78638125 -0.04111765 51.89321652 0 45 C-4.29 45 -8.58 45 -13 45 C-13 38.73 -13 32.46 -13 26 C-8.71 26 -4.42 26 0 26 C0 17.42 0 8.84 0 0 Z " fill="#2F1F49" transform="translate(415,27)"/>
<path d="M0 0 C2.76499072 0.97422885 4.13148088 1.9998263 6.20558167 4.05235291 C6.88913727 4.72007217 7.57269287 5.38779144 8.27696228 6.07574463 C8.9980014 6.80174362 9.71904053 7.52774261 10.46192932 8.27574158 C11.21189178 9.01950546 11.96185425 9.76326935 12.73454285 10.52957153 C14.31453185 12.10246388 15.88940646 13.68050811 17.45948792 15.26329041 C19.87236192 17.69005952 22.30829599 20.09184728 24.74708557 22.49253845 C26.27848572 24.02298774 27.80848331 25.55484201 29.33692932 27.08824158 C30.07011383 27.80816788 30.80329834 28.52809418 31.55870056 29.26983643 C32.2233432 29.94701218 32.88798584 30.62418793 33.57276917 31.32188416 C34.45948807 32.2100457 34.45948807 32.2100457 35.36412048 33.1161499 C36.50099182 34.88121033 36.50099182 34.88121033 36.38121033 36.87922668 C35.34690147 39.23167599 34.14553318 40.63738 32.34571838 42.47227478 C31.68122681 43.15590591 31.01673523 43.83953705 30.33210754 44.54388428 C29.60924561 45.27008469 28.88638367 45.9962851 28.14161682 46.74449158 C27.40022461 47.49586899 26.6588324 48.2472464 25.89497375 49.02139282 C24.32524554 50.60630457 22.75142259 52.18716971 21.17384338 53.76426697 C18.75831274 56.18636949 16.3677758 58.63142644 13.97755432 61.07847595 C12.45038219 62.61444783 10.92178319 64.1490026 9.39161682 65.68199158 C8.67685181 66.41831314 7.96208679 67.1546347 7.22566223 67.91326904 C6.2100119 68.91507454 6.2100119 68.91507454 5.17384338 69.93711853 C4.28901276 70.82836174 4.28901276 70.82836174 3.38630676 71.73760986 C1.50099182 72.88121033 1.50099182 72.88121033 -1.00375366 72.75668335 C-3.72172998 71.80306722 -5.05967414 70.83204578 -7.09593201 68.81773376 C-7.75623917 68.17326294 -8.41654633 67.52879211 -9.09686279 66.86479187 C-10.14090523 65.81330963 -10.14090523 65.81330963 -11.20603943 64.74058533 C-11.93143417 64.02138916 -12.65682892 63.30219299 -13.40420532 62.561203 C-14.93291957 61.03958536 -16.45652015 59.5128153 -17.97532654 57.98130798 C-20.3048091 55.63794931 -22.65728321 53.31957975 -25.01268005 51.00230408 C-26.49525219 49.52068301 -27.97642104 48.03765615 -29.45603943 46.55308533 C-30.16218887 45.86019409 -30.86833832 45.16730286 -31.59588623 44.45341492 C-32.24043259 43.79633545 -32.88497894 43.13925598 -33.54905701 42.46226501 C-34.40579765 41.60408173 -34.40579765 41.60408173 -35.27984619 40.7285614 C-36.91911999 38.24463043 -36.93558191 36.80473515 -36.49900818 33.88121033 C-35.24188232 31.98243713 -35.24188232 31.98243713 -33.45726013 30.17662048 C-32.79269302 29.49306488 -32.12812592 28.80950928 -31.44342041 28.10523987 C-30.71539719 27.38420074 -29.98737396 26.66316162 -29.23728943 25.92027283 C-28.49448227 25.17031036 -27.75167511 24.4203479 -26.98635864 23.6476593 C-25.41291886 22.066437 -23.83304646 20.49159355 -22.24729919 18.92271423 C-19.81875404 16.51339881 -17.42095576 14.07620457 -15.0243988 11.63511658 C-13.49296759 10.10339504 -11.95982037 8.57338684 -10.42478943 7.04527283 C-9.70688736 6.31208832 -8.98898529 5.57890381 -8.24932861 4.82350159 C-7.5690007 4.15885895 -6.88867279 3.49421631 -6.18772888 2.80943298 C-5.59482559 2.21828705 -5.0019223 1.62714111 -4.39105225 1.01808167 C-2.49900818 -0.11878967 -2.49900818 -0.11878967 0 0 Z " fill="#2F1F49" transform="translate(82.49900817871094,46.11878967285156)"/>
</svg>
