<?xml version="1.0" encoding="utf-8"?>
<svg xmlns="http://www.w3.org/2000/svg" viewBox="-1.382 26.7973 254.1524 249.5348" width="254.1524px" height="249.5348px"><path xmlns="http://www.w3.org/2000/svg" d="M 217.449 35.333 C 217.449 35.333 210.809 39.53 206.979 42.469 C 203.119 45.43 198.839 49.002 193.938 53.355 C 177.24 68.177 169.549 75.332 164.526 78.283 C 161.524 80.046 158.227 80.676 155.703 80.316 C 153.34 79.979 151.123 79.02 148.554 78.259 C 141.104 75.922 126.494 75.426 118.336 77.234 C 104.404 80.087 87.364 89.278 79.584 98.148 C 72.834 105.609 66.564 115.309 51.81 140.991 C 44.214 154.21 37.109 166.317 36.047 167.856 C 35.117 169.193 31.734 174.254 28.524 179.115 C 18.081 194.916 11.073 203.532 7.792 205.194 C 7.603 205.033 7.161 205.785 6.131 207.149 C 5.13 208.475 4.571 207.868 4.968 206.595 C 4.578 205.89 3.564 204.385 2.787 203.943 C 2.097 203.549 0.669 203.29 0.136 203.325 C -0.439 203.363 -1.284 203.668 -1.382 203.72 C -1.281 203.666 -1.132 203.558 -0.573 203.093 C 0.657 202.072 2.296 200.504 4.245 198.494 C 8.182 194.434 12.705 189.261 15.722 185.082 C 22.349 175.955 36.723 152.583 48.662 131.533 C 69.038 95.739 79.858 84.156 100.802 75.035 C 119.171 67.403 136.451 66.292 152.871 71.638 C 156.728 72.942 159.739 73.849 160.101 73.983 C 159.98 73.638 166.445 68.162 172.535 62.379 C 178.451 56.774 191.498 45.179 194.457 42.902 C 196.024 41.703 197.162 40.814 197.091 40.824 C 198.563 39.141 211.905 29.534 214.834 27.991 C 217.702 26.765 221.756 26.36 224.82 27.364 C 227.661 28.293 230.964 30.505 233.754 33.142 C 243.476 43.282 245.163 52.891 240.053 73.261 C 238.417 79.542 236.325 88.209 235.4 92.545 C 234.448 96.999 233.029 102.988 232.252 105.822 C 231.526 108.469 229.966 115.288 228.783 121.012 C 227.582 126.816 225.984 134.102 225.235 137.182 C 220.725 155.703 219.709 159.028 220.362 159.511 C 223.001 165.732 232.906 184.286 234.353 185.792 C 235.449 187.086 238.073 191.427 240.105 195.324 C 241.787 198.563 242.938 200.892 243.015 201.119 C 245.408 203.481 252.036 218.233 252.693 222.41 C 252.999 225.625 252.401 229.43 250.839 231.639 C 249.22 233.929 245.715 235.773 242.751 236.14 C 237.624 236.777 229.829 234.674 221.407 230.543 C 215.884 227.761 188.931 208.46 181.734 202.204 C 181.585 202.482 181.4 202.821 181.172 203.236 C 178.196 208.385 169.876 217.303 163.514 222.154 C 161.931 223.348 160.727 224.28 160.756 224.3 C 159.125 226.031 145.746 235.157 141.183 237.697 C 131.144 243.257 114.043 253.457 110.397 256.059 C 107.383 258.167 101.951 263.412 97.261 268.369 C 94.927 270.837 92.939 273.072 91.592 274.763 C 90.95 275.569 90.632 276.011 90.45 276.328 C 90.419 276.383 90.642 275.88 90.717 275.524 C 90.8 275.13 90.81 273.86 90.58 273.149 C 90.256 272.15 88.484 270.673 87.554 270.065 C 85.966 270.383 84.427 270.293 85.266 269.6 C 86.293 268.749 87.527 267.53 89.063 265.783 C 94.131 260.073 110.328 246 113.371 246 C 112.39 246 113.179 245.478 115.436 243.981 C 117.912 242.338 123.124 239.268 126.971 237.177 C 150.437 224.477 170.233 208.994 174.132 200.183 C 174.684 199.048 175.446 197.763 176.069 196.946 C 176.811 195.972 179.251 194 181.185 194 C 183.111 194 187.225 196.704 189.977 198.931 C 212.085 216.939 222.869 224.21 232.26 227.259 C 237.895 229.221 241.024 229.429 243.359 228.575 C 244.281 228.238 244.204 228.302 244.625 227.619 C 245.103 226.846 245.289 226.379 245.244 224.772 C 245.436 221.974 244.633 220.033 240.615 212.124 C 234.101 199.217 232.993 197.215 228.68 190.667 C 226.643 187.56 223.662 182.383 222.089 179.221 C 220.66 176.328 219.162 173.722 218.759 173.251 C 217.646 171.951 215.888 168.335 214.817 165.499 C 212.683 159.165 212.968 152.487 215.898 143.763 C 216.786 141.223 217.858 137.33 218.302 135.037 C 220.537 123.658 221.822 117.581 223.938 108.379 C 228.253 89.619 229.666 83.765 232.415 73.236 C 237.763 53.331 237.632 47.302 230.395 40.038 C 227.348 36.464 222.869 33.731 220.477 34.034 C 220.28 33.865 218.791 34.583 216.887 35.706 Z M 96.885 123.725 C 96.885 130.386 91.385 135.785 84.601 135.785 C 77.817 135.785 72.317 130.386 72.317 123.725 C 72.317 117.064 77.817 111.665 84.601 111.665 C 91.385 111.665 96.885 117.064 96.885 123.725 Z" stroke="none" fill="#000000" fill-rule="evenodd" id="object-1" transform="matrix(1, 0, 0, 1, -2.842170943040401e-14, 0)"/></svg>