<svg xmlns="http://www.w3.org/2000/svg" width="285" height="275" viewBox="0 0 285 275" version="1.1"><path xmlns="http://www.w3.org/2000/svg" d="M 214.405 31.366 C 208.285 34.866, 200.536 40.811, 190.618 49.616 C 157.137 79.338, 161.307 76.889, 150 73.473 C 141.913 71.030, 126.061 70.482, 117.297 72.343 C 102.693 75.444, 84.313 85.409, 75.866 94.805 C 68.878 102.576, 62.300 112.701, 47.475 138.500 C 39.889 151.700, 32.900 163.625, 31.943 165 C 30.987 166.375, 27.570 171.487, 24.352 176.359 C 14.004 192.026, 8.185 199.688, 6 200.526 C 3.872 201.343, -0.238 206.787, 0.225 208.176 C 0.770 209.810, 13.457 196.725, 19.770 188.017 C 26.502 178.732, 41.027 155.127, 53.011 134 C 73.057 98.660, 82.678 88.145, 102.753 79.639 C 120.314 72.199, 135.819 71.155, 151.271 76.375 C 155.545 77.819, 159.534 79, 160.135 79 C 161.137 79, 169.549 72.100, 175.975 66.008 C 181.832 60.456, 194.681 49.031, 197.500 46.869 C 199.150 45.604, 200.725 44.286, 201 43.941 C 201.948 42.749, 214.506 33.790, 217.131 32.432 C 220.801 30.534, 225.435 32.051, 230.278 36.736 C 239.262 45.426, 240.268 52.607, 235.215 72 C 233.567 78.325, 231.450 87.100, 230.510 91.500 C 229.571 95.900, 228.184 101.750, 227.430 104.500 C 226.676 107.250, 225.081 114.225, 223.887 120 C 222.692 125.775, 221.113 132.975, 220.377 136 C 215.836 154.666, 214.949 159.561, 215.761 161.469 C 218.498 167.894, 228.844 187.140, 230.632 189.132 C 231.438 190.030, 233.704 193.855, 235.669 197.632 C 237.633 201.409, 239.524 204.725, 239.870 205 C 241.495 206.290, 247.263 219.544, 247.737 223.075 C 249.040 232.791, 239.530 233.971, 223.633 226.066 C 218.256 223.392, 190.123 203.187, 184.436 197.914 C 181.282 194.990, 179.742 195.571, 176.812 200.788 C 174.194 205.450, 166.546 213.597, 160.500 218.165 C 158.850 219.411, 157.275 220.687, 157 221 C 155.846 222.311, 143.135 230.899, 138.759 233.324 C 128.650 238.924, 111.313 249.273, 107.500 251.983 C 100.908 256.667, 84.294 274.230, 85.923 274.791 C 86.780 275.087, 89.516 272.824, 92.811 269.092 C 97.657 263.604, 111.980 251, 113.371 251 C 113.662 251, 115.835 249.716, 118.200 248.147 C 120.565 246.578, 125.586 243.619, 129.357 241.571 C 153.187 228.630, 174.049 212.021, 178.649 202.326 C 179.518 200.497, 180.658 199, 181.185 199 C 181.711 199, 184.247 200.714, 186.821 202.809 C 209.121 220.959, 220.691 228.662, 230.674 232.001 C 243.118 236.165, 250.111 233.608, 250.243 224.847 C 250.299 221.196, 249.228 218.091, 245.078 209.871 C 238.517 196.874, 237.266 194.626, 232.858 187.920 C 230.898 184.939, 228.068 180.025, 226.569 177 C 225.069 173.975, 223.264 170.825, 222.558 170 C 221.852 169.175, 220.476 166.362, 219.501 163.750 C 217.520 158.443, 217.825 153.460, 220.622 145.403 C 221.558 142.706, 222.722 138.475, 223.208 136 C 225.436 124.657, 226.704 118.659, 228.811 109.500 C 233.120 90.766, 234.515 84.983, 237.253 74.500 C 242.673 53.755, 241.980 45.421, 234.109 36.690 C 230.431 32.611, 224.105 29.052, 220.500 29.034 C 219.400 29.029, 216.657 30.078, 214.405 31.366 M 80.077 118.589 C 77.826 120.483, 77 122.033, 77 124.366 C 77 130.848, 83.208 135.161, 88.550 132.390 C 94.730 129.184, 95.774 123.620, 91.077 118.923 C 87.452 115.298, 84.109 115.196, 80.077 118.589" stroke="none" fill="#000000" fill-rule="evenodd"/></svg>