<?xml version="1.0" encoding="utf-8"?>
<svg xmlns="http://www.w3.org/2000/svg" viewBox="-1.382 26.7973 254.1524 249.5348" width="254.1524px" height="249.5348px"><g id="object-2"><path xmlns="http://www.w3.org/2000/svg" d="M 216.887 35.706 C 218.791 34.583 220.28 33.865 220.477 34.034 C 222.869 33.731 227.348 36.464 230.395 40.038 C 237.632 47.302 237.763 53.331 232.415 73.236 C 229.666 83.765 228.253 89.619 223.938 108.379 C 221.822 117.581 220.537 123.658 218.302 135.037 C 217.858 137.33 216.786 141.223 215.898 143.763 C 212.968 152.487 212.683 159.165 214.817 165.499 C 215.888 168.335 217.646 171.951 218.759 173.251 C 219.162 173.722 220.66 176.328 222.089 179.221 C 223.662 182.383 226.643 187.56 228.68 190.667 C 232.993 197.215 234.101 199.217 240.615 212.124 C 244.633 220.033 245.436 221.974 245.244 224.772 C 245.289 226.379 245.103 226.846 244.625 227.619 C 244.204 228.302 244.281 228.238 243.359 228.575 C 241.024 229.429 237.895 229.221 232.26 227.259 C 222.869 224.21 212.085 216.939 189.977 198.931 C 187.225 196.704 183.111 194 181.185 194 C 179.251 194 176.811 195.972 176.069 196.946 C 175.446 197.763 174.684 199.048 174.132 200.183 C 170.233 208.994 150.437 224.477 126.971 237.177 C 123.124 239.268 117.912 242.338 115.436 243.981 C 113.179 245.478 112.39 246 113.371 246 C 110.328 246 94.131 260.073 89.063 265.783 C 87.527 267.53 86.293 268.749 85.266 269.6 C 84.427 270.293 85.966 270.383 87.554 270.065 C 88.484 270.673 90.256 272.15 90.58 273.149 C 90.81 273.86 90.8 275.13 90.717 275.524 C 90.642 275.88 90.419 276.383 90.45 276.328 C 90.632 276.011 90.95 275.569 91.592 274.763 C 92.939 273.072 94.927 270.837 97.261 268.369 C 101.951 263.412 107.383 258.167 110.397 256.059 C 114.043 253.457 131.144 243.257 141.183 237.697 C 145.746 235.157 159.125 226.031 160.756 224.3 C 160.727 224.28 161.931 223.348 163.514 222.154 C 169.876 217.303 178.196 208.385 181.172 203.236 C 182.437 200.93 182.388 200.945 182.304 200.977 C 181.908 201.126 180.473 201.042 180.334 200.982 C 180.445 201.03 180.455 201.022 181.037 201.581 C 186.966 207.051 215.685 227.661 221.407 230.543 C 229.829 234.674 237.624 236.777 242.751 236.14 C 245.715 235.773 249.22 233.929 250.839 231.639 C 252.401 229.43 252.999 225.625 252.693 222.41 C 252.033 218.214 245.347 203.346 242.982 201.087 C 243.25 201.526 242.022 199.016 240.105 195.324 C 238.073 191.427 235.449 187.086 234.353 185.792 C 232.906 184.286 223.001 165.732 220.362 159.511 C 219.709 159.028 220.725 155.703 225.235 137.182 C 225.984 134.102 227.582 126.816 228.783 121.012 C 229.966 115.288 231.526 108.469 232.252 105.822 C 233.029 102.988 234.448 96.999 235.4 92.545 C 236.325 88.209 238.417 79.542 240.053 73.261 C 245.163 52.891 243.476 43.282 233.754 33.142 C 230.964 30.505 227.661 28.293 224.82 27.364 C 221.756 26.36 217.702 26.765 214.834 27.991 C 211.905 29.534 198.563 39.141 197.091 40.824 C 197.162 40.814 196.024 41.703 194.457 42.902 C 191.498 45.179 178.451 56.774 172.535 62.379 C 166.244 68.353 159.552 74 160.135 74 C 160.244 74 157.055 73.053 152.871 71.638 C 136.451 66.292 119.171 67.403 100.802 75.035 C 79.858 84.156 69.038 95.739 48.662 131.533 C 36.723 152.583 22.349 175.955 15.722 185.082 C 12.705 189.261 8.182 194.434 4.245 198.494 C 2.296 200.504 0.657 202.072 -0.573 203.093 C -1.132 203.558 -1.281 203.666 -1.382 203.72 C -1.284 203.668 -0.439 203.363 0.136 203.325 C 0.669 203.29 2.097 203.549 2.787 203.943 C 3.564 204.385 4.578 205.89 4.968 206.595 C 4.571 207.868 5.13 208.475 6.131 207.149 C 7.161 205.785 7.603 205.033 7.792 205.194 C 11.073 203.532 18.081 194.916 28.524 179.115 C 31.734 174.254 35.117 169.193 36.047 167.856 C 37.109 166.317 44.214 154.21 51.81 140.991 C 66.564 115.309 72.834 105.609 79.584 98.148 C 87.364 89.278 104.404 80.087 118.336 77.234 C 126.494 75.426 141.104 75.922 148.554 78.259 C 151.123 79.02 153.34 79.979 155.703 80.316 C 158.227 80.676 161.524 80.046 164.526 78.283 C 169.549 75.332 177.24 68.177 193.938 53.355 C 198.839 49.002 203.119 45.43 206.979 42.469 C 210.809 39.53 217.449 35.333 217.449 35.333 M 84.49 120.94 C 84.49 120.94 82.316 123.272 82.107 123.664 C 81.944 123.97 82 123.72 82 124.366 C 82 126.361 82.282 126.809 83.625 127.742 C 84.906 128.632 85.059 129.078 86.248 127.952 C 88.559 126.978 88.754 126.487 88.978 125.294 C 89.192 124.151 89.132 124.049 87.541 122.459 C 86.242 121.159 86.26 121.143 85.578 121.122 C 84.872 121.1 84.721 121.088 83.296 122.415" stroke="none" fill="#000000" fill-rule="evenodd" id="object-1"/><ellipse style="stroke: rgb(0, 0, 0);" cx="85.136" cy="124.2" rx="6.531" ry="6.65" id="object-0"/></g></svg>