<svg xmlns="http://www.w3.org/2000/svg" width="285" height="275" viewBox="0 0 285 275" version="1.1"><path xmlns="http://www.w3.org/2000/svg" d="M 213.076 36.029 C 206.266 40.430, 197.899 47.149, 188.353 55.878 C 184.972 58.970, 180.911 62.625, 179.328 64 C 177.745 65.375, 173.272 69.313, 169.388 72.750 C 165.505 76.188, 161.804 79, 161.164 79 C 160.524 79, 159.995 79.563, 159.988 80.250 C 159.982 80.938, 157.672 83.750, 154.854 86.500 C 152.036 89.250, 147.503 94.875, 144.780 99 C 139.101 107.603, 123.997 137.269, 124.006 139.804 C 124.023 145.174, 126.203 148.911, 131.767 153.108 C 134.920 155.487, 139.394 159.023, 141.709 160.967 C 144.024 162.910, 148.670 166.750, 152.032 169.500 C 155.395 172.250, 161.784 177.771, 166.232 181.769 C 178.230 192.556, 213.012 219.350, 220.328 223.441 C 232.001 229.969, 241.600 232.382, 245.151 229.680 C 247.423 227.952, 247.953 222.053, 246.099 219.126 C 245.375 217.984, 244.726 218.049, 242.246 219.513 C 239.369 221.213, 239.013 221.199, 232.122 219.106 C 219.776 215.356, 206.676 206.121, 188.449 188.317 C 173.061 173.287, 163.013 160.766, 152.676 143.737 C 146.379 133.364, 146.498 131.915, 154.247 124.500 C 163.915 115.250, 175.557 101.409, 181.822 91.716 C 202.989 58.971, 211.329 46.966, 215.845 42.742 C 218.633 40.134, 221.422 38, 222.044 38 C 223.848 38, 234.125 49.161, 235.855 53 L 237.433 56.500 237.791 53.665 C 238.596 47.294, 231.357 36.426, 224.282 33.384 C 219.932 31.513, 220.138 31.465, 213.076 36.029" stroke="none" fill="#f99c32" fill-rule="evenodd"/></svg>