<?xml version="1.0" encoding="utf-8"?>
<svg xmlns="http://www.w3.org/2000/svg" viewBox="1 74.1176 179.2197 200.8824" width="179.22px" height="200.882px" preserveAspectRatio="none"><path xmlns="http://www.w3.org/2000/svg" d="M 143.201 75.047 C 148.822 76.159 160.008 80.113 159.988 80.983 C 159.982 81.267 157.672 83.75 154.854 86.5 C 152.036 89.25 147.503 94.875 144.78 99 C 139.101 107.603 123.997 137.269 124.006 139.804 C 124.023 145.174 126.203 148.911 131.767 153.108 C 134.92 155.487 139.394 159.023 141.709 160.967 C 144.024 162.91 148.68 166.75 152.056 169.5 C 155.431 172.25 161.19 177.2 164.853 180.5 C 168.516 183.8 173.76 188.397 176.507 190.715 C 179.253 193.033 180.825 194.953 180 194.981 C 179.175 195.008 177.454 197.162 176.177 199.766 C 172.693 206.863 162.957 216.623 151.999 224 C 142.036 230.708 140.037 231.97 135.152 234.633 C 132.261 236.21 129.126 237.95 128.186 238.5 C 127.247 239.05 122.883 241.591 118.489 244.148 C 108.976 249.682 97.676 259.145 89.611 268.33 L 83.756 275 L 1 275 L 1 209.485 L 7.25 203.44 C 19.261 191.823 27.322 179.678 56.993 128.5 C 67.862 109.753 71.52 104.4 78.415 97.159 C 87.717 87.388 101.085 79.76 115.5 75.998 C 123.472 73.918 135.412 73.508 143.201 75.047 Z M 85.929 117.796 C 81.717 117.796 78.303 121.133 78.303 125.249 C 78.303 129.365 81.717 132.702 85.929 132.702 C 90.141 132.702 93.555 129.365 93.555 125.249 C 93.555 121.133 90.141 117.796 85.929 117.796 Z" stroke="none" fill-rule="evenodd" id="object-0" style="fill: rgb(254, 254, 254);" transform="matrix(1, 0, 0, 1, -1.7763568394002505e-15, 0)"/></svg>