<?xml version="1.0" encoding="utf-8"?>
<svg xmlns="http://www.w3.org/2000/svg" viewBox="1 74.1176 179.2197 200.8824" width="179.22px" height="200.882px" preserveAspectRatio="none"><path xmlns="http://www.w3.org/2000/svg" d="M 115.5 75.998 C 101.085 79.76 87.717 87.388 78.415 97.159 C 71.52 104.4 67.862 109.753 56.993 128.5 C 27.322 179.678 19.261 191.823 7.25 203.44 L 1 209.485 L 1 242.242 L 1 275 L 42.378 275 L 83.756 275 L 89.611 268.33 C 97.676 259.145 108.976 249.682 118.489 244.148 C 122.883 241.591 127.247 239.05 128.186 238.5 C 129.126 237.95 132.261 236.21 135.152 234.633 C 140.037 231.97 142.036 230.708 151.999 224 C 162.957 216.623 172.693 206.863 176.177 199.766 C 177.454 197.162 179.175 195.008 180 194.981 C 180.825 194.953 179.253 193.033 176.507 190.715 C 173.76 188.397 168.516 183.8 164.853 180.5 C 161.19 177.2 155.431 172.25 152.056 169.5 C 148.68 166.75 144.024 162.91 141.709 160.967 C 139.394 159.023 134.92 155.487 131.767 153.108 C 126.203 148.911 124.023 145.174 124.006 139.804 C 123.997 137.269 139.101 107.603 144.78 99 C 147.503 94.875 152.036 89.25 154.854 86.5 C 157.672 83.75 159.982 81.267 159.988 80.983 C 160.008 80.113 148.822 76.159 143.201 75.047 C 135.412 73.508 123.472 73.918 115.5 75.998" stroke="none" fill="#fefefe" fill-rule="evenodd" id="object-0" transform="matrix(1, 0, 0, 1, 0, -3.552713678800501e-15)"/></svg>