<svg xmlns="http://www.w3.org/2000/svg" width="285" height="275" viewBox="0 0 285 275" version="1.1"><path xmlns="http://www.w3.org/2000/svg" d="M 215.845 42.742 C 211.329 46.966, 202.989 58.971, 181.822 91.716 C 175.557 101.409, 163.915 115.250, 154.247 124.500 C 146.498 131.915, 146.379 133.364, 152.676 143.737 C 163.013 160.766, 173.061 173.287, 188.449 188.317 C 206.676 206.121, 219.776 215.356, 232.122 219.106 C 239.013 221.199, 239.369 221.213, 242.246 219.513 C 244.726 218.049, 245.375 217.984, 246.099 219.126 C 246.578 219.882, 246.976 220.096, 246.985 219.601 C 247.003 218.517, 240.762 205.708, 239.870 205 C 239.524 204.725, 237.633 201.409, 235.669 197.632 C 233.704 193.855, 231.438 190.030, 230.632 189.132 C 228.844 187.140, 218.498 167.894, 215.761 161.469 C 214.949 159.561, 215.836 154.666, 220.377 136 C 221.113 132.975, 222.692 125.775, 223.887 120 C 225.081 114.225, 226.676 107.250, 227.430 104.500 C 228.184 101.750, 229.571 95.900, 230.510 91.500 C 231.450 87.100, 233.481 78.550, 235.023 72.500 C 236.565 66.450, 238.066 59.025, 238.359 56 C 238.695 52.522, 238.610 51.603, 238.128 53.500 L 237.366 56.500 235.822 53 C 234.138 49.184, 223.865 38, 222.044 38 C 221.422 38, 218.633 40.134, 215.845 42.742 M 180.500 195.713 C 181.600 195.978, 183.625 197.176, 185 198.375 C 186.375 199.574, 189.525 202.081, 192 203.945 C 194.475 205.810, 197.063 207.765, 197.750 208.290 C 198.438 208.815, 199 209.033, 199 208.774 C 199 207.547, 181.803 195.014, 180.260 195.116 C 178.824 195.211, 178.868 195.321, 180.500 195.713" stroke="none" fill="#bb4c1a" fill-rule="evenodd"/></svg>