<svg xmlns="http://www.w3.org/2000/svg" width="285" height="275" viewBox="0 0 285 275" version="1.1"><path d="M 214.405 31.366 C 208.285 34.866, 200.536 40.811, 190.618 49.616 C 157.137 79.338, 161.307 76.889, 150 73.473 C 141.913 71.030, 126.061 70.482, 117.297 72.343 C 102.693 75.444, 84.313 85.409, 75.866 94.805 C 68.878 102.576, 62.300 112.701, 47.475 138.500 C 39.889 151.700, 32.900 163.625, 31.943 165 C 30.987 166.375, 27.570 171.487, 24.352 176.359 C 14.004 192.026, 8.185 199.688, 6 200.526 C 3.872 201.343, -0.238 206.787, 0.225 208.176 C 0.770 209.810, 13.457 196.725, 19.770 188.017 C 26.502 178.732, 41.027 155.127, 53.011 134 C 73.057 98.660, 82.678 88.145, 102.753 79.639 C 120.314 72.199, 135.819 71.155, 151.271 76.375 C 155.545 77.819, 159.534 79, 160.135 79 C 161.137 79, 169.549 72.100, 175.975 66.008 C 181.832 60.456, 194.681 49.031, 197.500 46.869 C 199.150 45.604, 200.725 44.286, 201 43.941 C 201.948 42.749, 214.506 33.790, 217.131 32.432 C 220.801 30.534, 225.435 32.051, 230.278 36.736 C 239.262 45.426, 240.268 52.607, 235.215 72 C 233.567 78.325, 231.450 87.100, 230.510 91.500 C 229.571 95.900, 228.184 101.750, 227.430 104.500 C 226.676 107.250, 225.081 114.225, 223.887 120 C 222.692 125.775, 221.113 132.975, 220.377 136 C 215.836 154.666, 214.949 159.561, 215.761 161.469 C 218.498 167.894, 228.844 187.140, 230.632 189.132 C 231.438 190.030, 233.704 193.855, 235.669 197.632 C 237.633 201.409, 239.524 204.725, 239.870 205 C 241.495 206.290, 247.263 219.544, 247.737 223.075 C 249.040 232.791, 239.530 233.971, 223.633 226.066 C 218.256 223.392, 190.123 203.187, 184.436 197.914 C 181.282 194.990, 179.742 195.571, 176.812 200.788 C 174.194 205.450, 166.546 213.597, 160.500 218.165 C 158.850 219.411, 157.275 220.687, 157 221 C 155.846 222.311, 143.135 230.899, 138.759 233.324 C 128.650 238.924, 111.313 249.273, 107.500 251.983 C 100.908 256.667, 84.294 274.230, 85.923 274.791 C 86.780 275.087, 89.516 272.824, 92.811 269.092 C 97.657 263.604, 111.980 251, 113.371 251 C 113.662 251, 115.835 249.716, 118.200 248.147 C 120.565 246.578, 125.586 243.619, 129.357 241.571 C 153.187 228.630, 174.049 212.021, 178.649 202.326 C 179.518 200.497, 180.658 199, 181.185 199 C 181.711 199, 184.247 200.714, 186.821 202.809 C 209.121 220.959, 220.691 228.662, 230.674 232.001 C 243.118 236.165, 250.111 233.608, 250.243 224.847 C 250.299 221.196, 249.228 218.091, 245.078 209.871 C 238.517 196.874, 237.266 194.626, 232.858 187.920 C 230.898 184.939, 228.068 180.025, 226.569 177 C 225.069 173.975, 223.264 170.825, 222.558 170 C 221.852 169.175, 220.476 166.362, 219.501 163.750 C 217.520 158.443, 217.825 153.460, 220.622 145.403 C 221.558 142.706, 222.722 138.475, 223.208 136 C 225.436 124.657, 226.704 118.659, 228.811 109.500 C 233.120 90.766, 234.515 84.983, 237.253 74.500 C 242.673 53.755, 241.980 45.421, 234.109 36.690 C 230.431 32.611, 224.105 29.052, 220.500 29.034 C 219.400 29.029, 216.657 30.078, 214.405 31.366 M 80.077 118.589 C 77.826 120.483, 77 122.033, 77 124.366 C 77 130.848, 83.208 135.161, 88.550 132.390 C 94.730 129.184, 95.774 123.620, 91.077 118.923 C 87.452 115.298, 84.109 115.196, 80.077 118.589" stroke="none" fill="#000000" fill-rule="evenodd"/><path d="M 213.076 36.029 C 206.266 40.430, 197.899 47.149, 188.353 55.878 C 184.972 58.970, 180.911 62.625, 179.328 64 C 177.745 65.375, 173.272 69.313, 169.388 72.750 C 165.505 76.188, 161.804 79, 161.164 79 C 160.524 79, 159.995 79.563, 159.988 80.250 C 159.982 80.938, 157.672 83.750, 154.854 86.500 C 152.036 89.250, 147.503 94.875, 144.780 99 C 139.101 107.603, 123.997 137.269, 124.006 139.804 C 124.023 145.174, 126.203 148.911, 131.767 153.108 C 134.920 155.487, 139.394 159.023, 141.709 160.967 C 144.024 162.910, 148.670 166.750, 152.032 169.500 C 155.395 172.250, 161.784 177.771, 166.232 181.769 C 178.230 192.556, 213.012 219.350, 220.328 223.441 C 232.001 229.969, 241.600 232.382, 245.151 229.680 C 247.423 227.952, 247.953 222.053, 246.099 219.126 C 245.375 217.984, 244.726 218.049, 242.246 219.513 C 239.369 221.213, 239.013 221.199, 232.122 219.106 C 219.776 215.356, 206.676 206.121, 188.449 188.317 C 173.061 173.287, 163.013 160.766, 152.676 143.737 C 146.379 133.364, 146.498 131.915, 154.247 124.500 C 163.915 115.250, 175.557 101.409, 181.822 91.716 C 202.989 58.971, 211.329 46.966, 215.845 42.742 C 218.633 40.134, 221.422 38, 222.044 38 C 223.848 38, 234.125 49.161, 235.855 53 L 237.433 56.500 237.791 53.665 C 238.596 47.294, 231.357 36.426, 224.282 33.384 C 219.932 31.513, 220.138 31.465, 213.076 36.029" stroke="none" fill="#f99c32" fill-rule="evenodd"/><path d="M -0 102.580 L -0 205.160 4.563 200.830 C 8.957 196.661, 21 181.618, 21 180.299 C 21 179.946, 21.634 178.947, 22.408 178.079 C 23.895 176.412, 40 151.119, 40 150.451 C 40 150.237, 42.174 146.335, 44.832 141.781 C 47.489 137.226, 51.384 130.350, 53.487 126.500 C 59.072 116.274, 69.159 101.288, 74.569 95.177 C 81.412 87.449, 88.940 82.288, 101.402 76.779 C 110.779 72.633, 113.818 71.780, 121.953 71.008 C 133.057 69.954, 147.865 71.081, 153.423 73.403 C 155.525 74.282, 157.922 75, 158.750 75 C 160.402 75, 172.009 65.485, 184.500 53.893 C 196.656 42.611, 208.579 33.276, 215.045 29.977 C 221.018 26.930, 225.608 27.943, 232.043 33.728 C 234.830 36.234, 238.204 40.442, 239.540 43.078 C 241.660 47.263, 241.912 48.865, 241.522 55.686 C 241.275 59.984, 240.440 65.750, 239.666 68.500 C 238.891 71.250, 237.723 76.200, 237.069 79.500 C 236.415 82.800, 235.501 86.850, 235.039 88.500 C 234.576 90.150, 233.232 95.550, 232.051 100.500 C 230.871 105.450, 229.510 111.075, 229.027 113 C 228.544 114.925, 227.681 118.975, 227.108 122 C 226.536 125.025, 225.805 128.850, 225.484 130.500 C 225.163 132.150, 224.513 135.556, 224.039 138.070 C 223.565 140.583, 222.475 144.322, 221.615 146.378 C 220.756 148.434, 219.767 152.276, 219.417 154.915 C 218.701 160.312, 220.563 165.598, 225.929 173.397 C 227.618 175.852, 229.003 178.229, 229.007 178.680 C 229.010 179.131, 231.035 182.636, 233.507 186.470 C 235.978 190.303, 238 193.822, 238 194.290 C 238 194.757, 239.373 197.136, 241.052 199.576 C 242.731 202.016, 245.763 207.497, 247.792 211.756 C 253.843 224.465, 252.076 232.967, 243.066 234.489 C 233.634 236.082, 218.583 228.708, 196.944 211.892 C 185.074 202.667, 181.377 200.272, 180.337 201.135 C 179.602 201.746, 179 202.806, 179 203.492 C 179 204.178, 175.284 208.511, 170.743 213.120 C 162.417 221.569, 147.460 232.467, 134.500 239.526 C 130.650 241.623, 125.821 244.387, 123.770 245.669 C 121.718 246.951, 119.788 248, 119.479 248 C 117.361 248, 98.934 263.110, 93.560 269.253 L 88.970 274.500 186.235 274.758 C 239.731 274.900, 284.050 274.806, 284.723 274.550 C 285.678 274.185, 285.953 244.113, 285.978 137.042 L 286.011 0 143.006 0 L 0 0 -0 102.580 M 0.481 103 C 0.481 159.375, 0.602 182.437, 0.750 154.250 C 0.897 126.062, 0.897 79.937, 0.750 51.750 C 0.602 23.562, 0.481 46.625, 0.481 103 M 115.500 75.998 C 101.085 79.760, 87.717 87.388, 78.415 97.159 C 71.520 104.400, 67.862 109.753, 56.993 128.500 C 27.322 179.678, 19.261 191.823, 7.250 203.440 L 1 209.485 1 242.242 L 1 275 42.378 275 L 83.756 275 89.611 268.330 C 97.676 259.145, 108.976 249.682, 118.489 244.148 C 122.883 241.591, 127.247 239.050, 128.186 238.500 C 129.126 237.950, 132.261 236.210, 135.152 234.633 C 140.037 231.970, 142.036 230.708, 151.999 224 C 162.957 216.623, 172.693 206.863, 176.177 199.766 C 177.454 197.162, 179.175 195.008, 180 194.981 C 180.825 194.953, 179.253 193.033, 176.507 190.715 C 173.760 188.397, 168.516 183.800, 164.853 180.500 C 161.190 177.200, 155.431 172.250, 152.056 169.500 C 148.680 166.750, 144.024 162.910, 141.709 160.967 C 139.394 159.023, 134.920 155.487, 131.767 153.108 C 126.203 148.911, 124.023 145.174, 124.006 139.804 C 123.997 137.269, 139.101 107.603, 144.780 99 C 147.503 94.875, 152.036 89.250, 154.854 86.500 C 157.672 83.750, 159.982 81.267, 159.988 80.983 C 160.008 80.113, 148.822 76.159, 143.201 75.047 C 135.412 73.508, 123.472 73.918, 115.500 75.998 M 81.500 116.161 C 75.398 119.516, 74.214 126.368, 78.923 131.077 C 86.492 138.646, 98.609 129.857, 93.552 120.467 C 90.931 115.600, 85.832 113.778, 81.500 116.161" stroke="none" fill="#fefefe" fill-rule="evenodd"/><path d="M 215.845 42.742 C 211.329 46.966, 202.989 58.971, 181.822 91.716 C 175.557 101.409, 163.915 115.250, 154.247 124.500 C 146.498 131.915, 146.379 133.364, 152.676 143.737 C 163.013 160.766, 173.061 173.287, 188.449 188.317 C 206.676 206.121, 219.776 215.356, 232.122 219.106 C 239.013 221.199, 239.369 221.213, 242.246 219.513 C 244.726 218.049, 245.375 217.984, 246.099 219.126 C 246.578 219.882, 246.976 220.096, 246.985 219.601 C 247.003 218.517, 240.762 205.708, 239.870 205 C 239.524 204.725, 237.633 201.409, 235.669 197.632 C 233.704 193.855, 231.438 190.030, 230.632 189.132 C 228.844 187.140, 218.498 167.894, 215.761 161.469 C 214.949 159.561, 215.836 154.666, 220.377 136 C 221.113 132.975, 222.692 125.775, 223.887 120 C 225.081 114.225, 226.676 107.250, 227.430 104.500 C 228.184 101.750, 229.571 95.900, 230.510 91.500 C 231.450 87.100, 233.481 78.550, 235.023 72.500 C 236.565 66.450, 238.066 59.025, 238.359 56 C 238.695 52.522, 238.610 51.603, 238.128 53.500 L 237.366 56.500 235.822 53 C 234.138 49.184, 223.865 38, 222.044 38 C 221.422 38, 218.633 40.134, 215.845 42.742 M 180.500 195.713 C 181.600 195.978, 183.625 197.176, 185 198.375 C 186.375 199.574, 189.525 202.081, 192 203.945 C 194.475 205.810, 197.063 207.765, 197.750 208.290 C 198.438 208.815, 199 209.033, 199 208.774 C 199 207.547, 181.803 195.014, 180.260 195.116 C 178.824 195.211, 178.868 195.321, 180.500 195.713" stroke="none" fill="#bb4c1a" fill-rule="evenodd"/></svg>